<?xml version="1.0" standalone="no"?> <!DOCTYPE svg PUBLIC "-//W3C//DTD SVG 1.0//EN" "http://www.w3.org/TR/2001/REC-SVG-20010904/DTD/svg10.dtd" > <svg xmlns="http://www.w3.org/2000/svg" width="100%" height="100%">
<defs >
<font id="neuropol" horiz-adv-x="1123" ><font-face
    font-family="Neuropol"
    units-per-em="2048"
    panose-1="2 11 5 0 0 0 0 0 0 0"
    ascent="1624"
    descent="-393"
    alphabetic="0" />
<missing-glyph horiz-adv-x="1024" d="M128 0V1624H896V0H128ZM256 128H768V1496H256V128Z" />
<glyph unicode=" " glyph-name="space" horiz-adv-x="582" />
<glyph unicode="!" glyph-name="exclam" horiz-adv-x="403" d="M313 314Q313 256 266 242Q246 236 170 236Q91 236 91 314V1139Q91 1218 170 1218Q246 1218 266 1212Q313 1198 313 1139V314ZM339 102Q339 49 295 19Q257 -7 201 -7Q64 -7 64 102Q64 154 108 183Q149
209 201 209Q253 209 294 183Q339 153 339 102Z" />
<glyph unicode="&quot;" glyph-name="quotedbl" horiz-adv-x="679" d="M616 1127Q616 1122 616 1117T614 1105L565 815Q557 765 512 754Q505 750 424 750Q344 750 344 819Q344 824 344 829T346 841L393 1130Q402 1180 447 1192Q454 1196 536 1196Q616 1196 616
1127ZM334 1127Q334 1122 334 1117T332 1105L283 815Q275 765 230 754Q223 750 142 750Q62 750 62 819Q62 824 62 829T64 841L111 1130Q120 1180 165 1192Q172 1196 254 1196Q334 1196 334 1127Z" />
<glyph unicode="#" glyph-name="numbersign" horiz-adv-x="1464" d="M1421 778Q1421 738 1397 705Q1368 669 1330 669H1074L1025 535H1221Q1303 535 1303 463Q1303 424 1278 390Q1249 352 1212 352H957L855 76Q841 37 798 28Q784 25 718 25Q637 25 637 88Q637
96 645 130L727 352H552L451 76Q437 37 394 28Q380 25 314 25Q232 25 232 88Q232 104 241 130L322 352H127Q42 352 42 420Q42 460 70 497Q99 535 137 535H391L440 669H244Q162 669 162 741Q162 783 187 814Q215 851 253 851H509L610 1128Q625 1167 667 1176Q682
1179 747 1179Q829 1179 829 1116Q829 1098 820 1073L739 851H912L1014 1128Q1029 1168 1072 1177Q1077 1178 1097 1178T1152 1179Q1233 1179 1233 1116Q1233 1107 1225 1073L1143 851H1339Q1421 851 1421 778ZM846 669H669L621 535H796L846 669Z" />
<glyph unicode="$" glyph-name="dollar" horiz-adv-x="1469" d="M1426 292Q1426 -5 853 -5Q853 -83 818 -103Q787 -114 709 -114Q657 -114 641 -83Q631 -64 631 -5L244 -6Q196 -6 165 -4T116 2Q44 21 44 92Q44 177 126 177H631V515Q136 515 66 738Q56 759 56 900Q56
1208 631 1208Q631 1279 671 1295Q684 1302 774 1302Q853 1302 853 1225V697Q1426 697 1426 402V292ZM1206 290V395Q1206 481 1063 505Q1024 515 853 515V177H872H883Q897 177 898 176Q899 175 905 175H912H924H943Q1206 175 1206 290ZM631 693V1027Q552 1027 499
1025T420 1017Q277 991 277 902V812Q277 728 421 703Q460 693 631 693Z" />
<glyph unicode="%" glyph-name="percent" horiz-adv-x="1950" d="M1911 176Q1911 34 1723 -13Q1674 -24 1599 -30T1421 -36Q998 -36 998 170V327Q998 467 1166 514Q1244 539 1447 539Q1651 539 1735 514Q1911 467 1911 327V176ZM1682 1148Q1682 1112 1646 1078L540
21Q508 -8 368 -8Q286 -8 286 59Q286 95 321 128L1432 1189Q1457 1213 1596 1213Q1682 1213 1682 1148ZM953 835Q953 619 477 619Q40 619 40 829V986Q40 1124 208 1172Q310 1198 489 1198Q668 1198 777 1172Q953 1124 953 986V835ZM1646 236V258Q1646 352 1515
352H1495H1482Q1468 352 1467 353Q1451 354 1439 354T1419 355Q1236 355 1236 258Q1236 180 1299 155Q1350 138 1428 138Q1646 138 1646 236ZM689 895Q689 981 610 1003Q587 1008 550 1011T462 1014Q278 1014 278 918Q278 798 459 798Q689 798 689 895Z" />
<glyph unicode="&amp;" glyph-name="ampersand" horiz-adv-x="1706" d="M1665 65Q1665 -7 1574 -7H1527H1509Q1498 -7 1497 -6Q1475 -4 1362 64Q1227 -8 983 -8H558Q369 -8 234 53Q41 134 41 285V368Q41 486 142 554Q197 591 349 638Q186 771 174 832Q171 847
171 871Q171 908 173 940T179 999Q182 1021 207 1058Q308 1210 602 1210H837Q999 1210 1112 1153Q1257 1080 1257 934Q1257 899 1256 874T1252 833Q1242 764 1079 678Q1019 647 962 623T844 580L1321 310L1322 562Q1322 620 1370 634Q1389 640 1465 640Q1543 640
1543 562L1544 315Q1545 328 1545 341T1547 371Q1546 370 1546 360V350V331V315Q1546 302 1545 301L1544 315Q1536 239 1515 199L1614 140Q1665 110 1665 65ZM1034 876V935Q1034 1029 833 1029H596Q392 1029 392 939V874Q392 838 432 814L608 709L882 786Q1034
830 1034 876ZM1151 184L576 511Q264 421 264 370V290Q264 229 392 197Q470 175 571 175H985Q1106 175 1151 184Z" />
<glyph unicode="&apos;" glyph-name="quotesingle" horiz-adv-x="397" d="M334 1127Q334 1122 334 1117T332 1105L283 815Q275 765 230 754Q223 750 142 750Q62 750 62 819Q62 824 62 829T64 841L111 1130Q120 1180 165 1192Q172 1196 254 1196Q334 1196 334 1127Z" />
<glyph unicode="(" glyph-name="parenleft" horiz-adv-x="563" d="M499 1143Q499 1098 444 1061L340 991Q285 940 285 860V344Q285 243 443 142Q498 108 498 63Q498 -8 408 -8Q336 -8 314 1Q63 105 63 344V860Q63 1108 317 1204Q333 1210 421 1210Q499 1210 499 1143Z" />
<glyph unicode=")" glyph-name="parenright" horiz-adv-x="559" d="M497 344Q497 234 423 136Q354 44 246 1Q223 -8 151 -8Q63 -8 63 62Q63 106 118 143L220 215Q275 267 275 344V860Q275 950 112 1065Q62 1100 62 1144Q62 1210 138 1210Q227 1210 244 1204Q497
1107 497 860V344Z" />
<glyph unicode="*" glyph-name="asterisk" horiz-adv-x="1091" d="M1020 1038Q1020 989 948 973L832 947L944 920Q1015 903 1015 854Q1015 819 967 773Q917 726 886 726Q879 726 852 734L640 830Q669 691 669 698Q669 628 588 628Q505 628 487 631Q421 641 421
689Q421 712 448 831L239 733Q212 725 204 725Q172 725 122 772Q73 820 73 853Q73 903 144 920L252 946L144 971Q72 987 72 1037Q72 1070 120 1120Q169 1169 203 1169Q207 1169 236 1161L448 1064Q420 1170 420 1207Q420 1253 488 1264Q494 1265 519 1265T591 1266Q672
1266 672 1199Q672 1171 641 1068L858 1165Q885 1173 893 1173Q925 1173 972 1122Q1020 1071 1020 1038Z" />
<glyph unicode="+" glyph-name="plus" horiz-adv-x="791" d="M758 600Q758 511 676 511H500V396Q500 317 421 317Q343 317 321 330Q286 350 286 415V435V448Q286 462 287 463Q288 464 288 478V491V511H116Q33 511 33 600Q33 689 116 689H285V797Q285 874 364 874Q473
874 491 841Q500 824 500 689H676Q758 689 758 600Z" />
<glyph unicode="," glyph-name="comma" horiz-adv-x="387" d="M329 223Q329 218 329 212T327 200L279 -90Q272 -139 225 -151Q214 -153 192 -154T137 -156Q58 -156 58 -87Q58 -82 58 -77T60 -65L106 226Q113 273 160 287Q170 289 192 290T249 292Q329 292 329 223Z" />
<glyph unicode="-" glyph-name="hyphen" horiz-adv-x="951" d="M882 495Q882 417 803 417H147Q89 417 76 436Q68 450 68 508Q68 586 147 586H803Q859 586 872 567Q882 554 882 495Z" />
<glyph unicode="." glyph-name="period" horiz-adv-x="372" d="M324 102Q324 51 279 20Q240 -7 186 -7Q130 -7 92 19Q48 49 48 102Q48 154 92 183Q133 209 185 209Q238 209 279 183Q324 153 324 102Z" />
<glyph unicode="/" glyph-name="slash" horiz-adv-x="1387" d="M1366 1145Q1366 1109 1332 1076L234 15Q208 -8 110 -8Q21 -8 21 58Q21 92 56 127L1153 1188Q1175 1210 1278 1210Q1366 1210 1366 1145Z" />
<glyph unicode="0" glyph-name="zero" horiz-adv-x="1643" d="M1560 319Q1560 -8 997 -8H651Q105 -8 85 288Q82 334 82 442Q82 515 85 661Q88 806 88 880Q88 1210 651 1210H997Q1560 1210 1560 881V319ZM1338 326V875Q1338 1029 1001 1029H648Q504 1029 437 1011Q309
976 309 874V324Q309 175 648 175H1001Q1159 175 1210 191Q1338 224 1338 326Z" />
<glyph unicode="1" glyph-name="one" horiz-adv-x="382" d="M302 71Q302 12 255 -2Q235 -8 159 -8Q80 -8 80 71V1132Q80 1210 159 1210Q235 1210 255 1204Q302 1190 302 1132V71Z" />
<glyph unicode="2" glyph-name="two" horiz-adv-x="1646" d="M1602 912Q1602 746 1560 676Q1457 504 1077 504H572Q264 504 264 389V175H1519Q1600 175 1600 84Q1600 -8 1519 -8H122Q44 -8 44 71V387Q44 592 329 661Q384 674 445 680T577 687H1069Q1152 687 1255
707Q1380 737 1380 807V911Q1380 995 1157 1020Q1076 1029 866 1029Q817 1029 799 1059Q788 1079 788 1132Q788 1210 866 1210Q1035 1210 1135 1207T1277 1196Q1408 1174 1495 1108Q1602 1027 1602 912Z" />
<glyph unicode="3" glyph-name="three" horiz-adv-x="1708" d="M1634 313Q1634 132 1455 51Q1314 -8 1117 -8H152Q74 -8 74 71Q74 175 152 175H1117Q1412 175 1412 304V419Q1412 521 1126 521H152Q74 521 74 626Q74 704 152 704H1127Q1412 704 1412 813V928Q1412
1000 1292 1021Q1269 1025 1225 1027T1117 1029H916Q835 1029 835 1120Q835 1210 916 1210H957H984H999H1007Q1014 1210 1015 1211Q1049 1212 1073 1212T1115 1213Q1322 1213 1451 1169Q1634 1101 1634 921Q1634 791 1625 752Q1605 669 1530 617Q1605 561 1624
482Q1634 452 1634 313Z" />
<glyph unicode="4" glyph-name="four" horiz-adv-x="1788" d="M1718 71Q1718 -10 1617 -10Q1537 -10 1518 -4Q1468 11 1468 71V302H182Q70 302 70 429V1131Q70 1191 120 1206Q139 1212 219 1212Q320 1212 320 1131V512H1468V1131Q1468 1191 1518 1206Q1537 1212
1617 1212Q1718 1212 1718 1131V71Z" />
<glyph unicode="5" glyph-name="five" horiz-adv-x="1664" d="M1625 298Q1625 -8 1077 -8H117Q39 -8 39 71Q39 175 117 175H1061Q1403 175 1403 299V477Q1403 554 1298 590Q1212 616 1125 616H117Q39 616 39 694V1132Q39 1210 117 1210H844Q922 1210 922 1132Q922
1079 910 1058Q893 1029 844 1029H258V797H1120Q1313 797 1446 730Q1625 644 1625 478V298Z" />
<glyph unicode="6" glyph-name="six" horiz-adv-x="1705" d="M1660 298Q1660 132 1484 52Q1352 -8 1163 -8H574Q254 -8 139 110Q45 204 45 318V900Q45 1212 652 1212H699H723H735Q746 1212 747 1211Q792 1210 817 1209T850 1206Q905 1193 905 1132Q905 1078 893
1059Q873 1029 827 1029H577Q267 1029 267 902V800H1119Q1340 800 1466 745Q1660 667 1660 488V298ZM1440 301V484Q1440 560 1316 594Q1230 618 1124 618H267V319Q267 242 390 203Q468 175 578 175H1163Q1254 175 1332 199Q1440 232 1440 301Z" />
<glyph unicode="7" glyph-name="seven" horiz-adv-x="1642" d="M1598 1119Q1598 1074 1556 1025L710 21Q684 -8 587 -8Q506 -8 506 66Q506 96 527 122L1295 1029H123Q45 1029 45 1108Q45 1210 123 1210H1459Q1598 1210 1598 1119Z" />
<glyph unicode="8" glyph-name="eight" horiz-adv-x="1671" d="M1596 808Q1596 691 1469 612Q1558 544 1581 480Q1594 451 1594 305Q1594 136 1409 53Q1283 -8 1076 -8H601Q419 -8 269 54Q83 136 83 304Q83 436 95 480Q118 560 204 612Q117 655 91 731Q76 776
76 899Q76 1210 629 1210H1048Q1596 1210 1596 900V808ZM1376 811V900Q1376 1029 1048 1029H629Q298 1029 298 899V811Q298 704 608 704H1069Q1167 704 1250 722Q1376 749 1376 811ZM1374 307V411Q1374 470 1241 500Q1148 521 1055 521H618Q502 521 432 502Q303
473 303 411V305Q303 293 322 271Q398 175 601 175H1076Q1177 175 1258 199Q1374 234 1374 307Z" />
<glyph unicode="9" glyph-name="nine" horiz-adv-x="1671" d="M1594 305Q1594 92 1319 24Q1168 -8 875 -8Q826 -8 809 21Q797 42 797 96Q797 175 875 175Q888 175 906 175T950 173Q951 172 962 172H973H993H1025Q1374 172 1374 322V404H618Q77 404 77 715V907Q77
1068 254 1149Q377 1210 573 1210H1069Q1266 1210 1411 1148Q1594 1064 1594 883V305ZM1374 585V883Q1374 963 1251 1002Q1165 1029 1060 1029H576Q469 1029 406 1007Q298 975 298 904V719Q298 642 422 608Q516 585 614 585H1374Z" />
<glyph unicode=":" glyph-name="colon" horiz-adv-x="374" d="M324 575Q324 466 187 466Q131 466 93 492Q49 522 49 575Q49 627 94 656Q132 682 186 682Q238 682 279 656Q324 626 324 575ZM324 108Q324 56 280 26Q242 0 187 0Q132 0 94 26Q49 54 49 108Q49 160
93 190Q134 216 186 216Q242 216 280 190Q324 161 324 108Z" />
<glyph unicode=";" glyph-name="semicolon" horiz-adv-x="413" d="M361 572Q361 518 318 490Q280 464 225 464Q172 464 131 490Q87 519 87 572Q87 625 131 654Q168 679 224 679Q280 679 317 654Q361 625 361 572ZM323 223Q323 218 323 212T321 200L273 -90Q266
-139 219 -151Q209 -153 188 -154T131 -156Q52 -156 52 -87Q52 -82 52 -77T54 -65L100 226Q107 273 154 287Q165 289 187 290T243 292Q323 292 323 223Z" />
<glyph unicode="&lt;" glyph-name="less" horiz-adv-x="1060" d="M1014 265Q1014 207 946 207Q927 207 883 221L70 560Q47 571 47 598Q47 621 73 638Q80 641 100 649T155 672L345 752Q475 806 605 860T883 975Q911 987 953 987Q991 987 1003 968Q1011 954 1011
914Q1011 893 983 883L285 598L983 313Q1014 300 1014 265Z" />
<glyph unicode="=" glyph-name="equal" horiz-adv-x="931" d="M873 679Q873 600 794 600H137Q80 600 67 619Q58 632 58 692Q58 770 137 770H794Q850 770 863 751Q873 738 873 679ZM873 383Q873 304 794 304H137Q80 304 66 324Q58 338 58 395Q58 474 137 474H794Q850
474 863 455Q873 442 873 383Z" />
<glyph unicode="&gt;" glyph-name="greater" horiz-adv-x="1038" d="M1003 598Q1003 570 979 560L166 221Q122 207 103 207Q35 207 35 265Q35 300 66 313L764 598L66 883Q43 892 39 907Q38 908 38 944Q38 987 96 987Q136 987 166 975Q257 938 388 883T704 752L890
675Q901 670 918 663T958 646Q1003 626 1003 598Z" />
<glyph unicode="?" glyph-name="question" horiz-adv-x="1127" d="M1079 746Q1079 597 895 521Q748 465 582 465H347Q293 465 293 400Q293 394 293 383T295 361T296 339T297 322Q297 262 257 246Q227 238 165 238Q82 238 82 352Q82 360 82 371T84 398Q85 414 85
425T86 445Q86 643 438 643Q450 643 468 643T510 641Q511 640 521 640H532H552H581Q673 640 753 661Q869 691 869 751V887Q869 1034 536 1034Q457 1034 457 1132Q457 1188 498 1203Q511 1210 587 1210Q783 1210 910 1146Q1079 1064 1079 890V746ZM322 108Q322 56
278 26Q240 0 185 0Q130 0 92 26Q47 54 47 108Q47 160 91 190Q129 216 184 216Q240 216 278 190Q322 161 322 108Z" />
<glyph unicode="@" glyph-name="at" horiz-adv-x="1302" d="M1252 542Q1252 359 1056 359H634Q514 359 423 405Q302 462 302 564V610Q302 721 417 776Q502 819 629 819H818Q806 893 671 893Q665 893 654 893T631 892Q619 892 608 892T591 891Q533 891 533 964Q533
1022 607 1022Q772 1022 849 992Q972 944 972 804V542Q972 489 1025 489Q1088 489 1088 542V1044Q1088 1087 1012 1112Q943 1132 900 1132H435Q213 1132 213 1040V326Q213 235 476 235H504H520H529Q537 235 538 236L581 237Q641 237 641 170Q641 103 581 103H434Q304
103 190 147Q50 206 50 326V1041Q50 1167 186 1225Q285 1267 432 1267H900Q1040 1267 1131 1221Q1252 1161 1252 1038V542ZM818 490V688H625Q587 688 525 671Q458 649 458 611V566Q458 526 528 505Q577 490 630 490H818Z" />
<glyph unicode="A" glyph-name="A" horiz-adv-x="1772" d="M1746 75Q1746 29 1715 -2T1638 -33Q1574 -33 1534 27L1337 313H401L204 27Q172 -20 135 -20Q98 -20 64 4Q26 30 26 65Q26 76 32 85L734 1158Q777 1224 882 1224Q960 1224 986 1180Q988 1177 990 1172T998
1158L1742 105Q1746 98 1746 75ZM1207 497L870 994L531 497H1207Z" />
<glyph unicode="B" glyph-name="B" horiz-adv-x="1670" d="M1589 316Q1589 141 1423 57Q1295 -8 1101 -8H159Q81 -8 81 71V1132Q81 1210 159 1210H1088Q1213 1210 1316 1190Q1427 1163 1504 1091Q1589 1010 1589 903Q1589 799 1581 753Q1579 744 1568 723T1538
670Q1501 606 1501 599Q1501 594 1538 536Q1557 507 1568 487T1581 456Q1585 440 1587 406T1589 316ZM1372 800Q1372 833 1366 902Q1356 1029 1078 1029H308V687H1087Q1372 687 1372 800ZM1366 378Q1366 504 1091 504H303V175H1076Q1345 175 1364 290Q1365 296
1365 318T1366 378Z" />
<glyph unicode="C" glyph-name="C" horiz-adv-x="1524" d="M1427 1108Q1427 1029 1349 1029H558Q270 1029 270 914V311Q270 175 589 175H1344Q1425 175 1425 84Q1425 -8 1344 -8H589Q436 -8 369 4Q296 18 217 58Q127 105 91 156Q48 214 48 307V913Q48 1028 153
1109Q241 1176 367 1199Q399 1204 445 1207T554 1210H1349Q1427 1210 1427 1108Z" />
<glyph unicode="D" glyph-name="D" horiz-adv-x="1670" d="M1594 321Q1594 149 1421 60Q1287 -8 1094 -8H154Q76 -8 76 71V1132Q76 1210 154 1210H1099Q1594 1210 1594 900V321ZM1374 322V899Q1374 970 1266 1005Q1189 1029 1093 1029H298V175H1089Q1192 175 1267
202Q1374 240 1374 322Z" />
<glyph unicode="E" glyph-name="E" horiz-adv-x="1459" d="M1417 601Q1417 504 1334 504H265V304Q265 175 550 175H1334Q1412 175 1412 96Q1412 -8 1334 -8H540Q366 -8 221 54Q43 135 43 296V900Q43 987 102 1058Q230 1210 559 1210H776Q853 1210 853 1108Q853
1029 776 1029H744H724H713Q702 1029 701 1030Q676 1031 658 1031T628 1032Q263 1032 263 900V687H1335Q1417 687 1417 601Z" />
<glyph unicode="F" glyph-name="F" horiz-adv-x="1453" d="M1411 596Q1411 504 1328 504H265V71Q265 -8 187 -8Q104 -8 91 -1Q43 14 43 71V926Q43 1072 231 1150Q375 1210 547 1210H713Q792 1210 792 1108Q792 1029 713 1029Q265 1029 265 918V687H1328Q1411 687
1411 596Z" />
<glyph unicode="G" glyph-name="G" horiz-adv-x="1585" d="M1543 302Q1543 136 1378 55Q1250 -8 1066 -8H562Q364 -8 229 49Q43 127 43 298V908Q43 1072 233 1151Q383 1210 564 1210H764Q845 1210 845 1120Q845 1029 764 1029H734H714H703Q694 1029 693 1030Q670
1031 652 1031T623 1032Q265 1032 265 908V299Q265 175 565 175H1066Q1138 175 1219 202Q1321 236 1321 294V609Q1321 664 1369 682Q1397 687 1465 687Q1543 687 1543 609V302Z" />
<glyph unicode="H" glyph-name="H" horiz-adv-x="1675" d="M1596 71Q1596 -8 1517 -8Q1441 -8 1422 -2Q1376 11 1376 71V504H300V71Q300 -8 222 -8Q188 -8 164 -7T126 -3Q78 12 78 71V1132Q78 1191 125 1205Q136 1207 160 1208T222 1210Q300 1210 300 1132V687H1376V1132Q1376
1189 1423 1204Q1442 1210 1517 1210Q1596 1210 1596 1132V71Z" />
<glyph unicode="I" glyph-name="I" horiz-adv-x="379" d="M300 71Q300 -8 222 -8Q188 -8 164 -7T126 -3Q78 12 78 71V1132Q78 1191 125 1205Q136 1207 160 1208T222 1210Q300 1210 300 1132V71Z" />
<glyph unicode="J" glyph-name="J" horiz-adv-x="774" d="M726 341Q726 122 519 43Q387 -8 127 -8Q48 -8 48 96Q48 175 127 175Q295 175 360 190Q503 225 503 338V1132Q503 1210 581 1210Q657 1210 677 1204Q726 1191 726 1132V341Z" />
<glyph unicode="K" glyph-name="K" horiz-adv-x="1442" d="M1400 65Q1400 -8 1310 -8Q1211 -8 1195 2L260 495V71Q260 -8 181 -8Q101 -8 88 -1Q43 14 43 71V1132Q43 1190 88 1204Q106 1210 181 1210Q260 1210 260 1132V723L1160 1202Q1186 1210 1281 1210Q1370
1210 1370 1138Q1370 1092 1317 1063L455 612L1347 141Q1400 112 1400 65Z" />
<glyph unicode="L" glyph-name="L" horiz-adv-x="1495" d="M1425 71Q1425 -8 1347 -8H635Q391 -8 254 36Q43 109 43 313V1132Q43 1210 121 1210Q196 1210 217 1204Q265 1190 265 1132V313Q265 218 419 188Q468 175 647 175H1347Q1425 175 1425 71Z" />
<glyph unicode="M" glyph-name="M" horiz-adv-x="2206" d="M2127 71Q2127 13 2079 -2Q2059 -8 1983 -8Q1905 -8 1905 71V859L1250 51Q1198 -13 1109 -13Q1019 -13 967 51L300 863V71Q300 -8 222 -8Q145 -8 126 -2Q78 13 78 71V1093Q78 1206 202 1206Q283 1206
332 1148L1112 225L1874 1149Q1922 1207 2000 1207Q2127 1207 2127 1084V71Z" />
<glyph unicode="N" glyph-name="N" horiz-adv-x="1671" d="M1590 123Q1590 -16 1468 -16Q1412 -16 1341 43L304 924V71Q304 12 256 -3Q242 -5 218 -6T160 -8Q82 -8 82 71V1087Q82 1219 196 1219Q268 1219 344 1155L1367 284V1132Q1367 1190 1415 1205Q1429 1207
1453 1208T1511 1210Q1590 1210 1590 1132V123Z" />
<glyph unicode="O" glyph-name="O" horiz-adv-x="1626" d="M1550 319Q1550 -8 985 -8H639Q410 -8 278 50Q76 132 76 318V880Q76 1210 639 1210H985Q1248 1210 1356 1164Q1550 1089 1550 880V319ZM1327 324V875Q1327 1029 990 1029H638Q298 1029 298 875V324Q298
175 638 175H991Q1327 175 1327 324Z" />
<glyph unicode="P" glyph-name="P" horiz-adv-x="1600" d="M1558 750Q1558 567 1376 486Q1235 427 1036 427H265V71Q265 14 217 -1Q204 -8 121 -8Q43 -8 43 71V1132Q43 1210 121 1210H1046Q1234 1210 1365 1158Q1558 1086 1558 939V750ZM1338 757V923Q1338 1029
1048 1029H265V609H1049Q1338 609 1338 757Z" />
<glyph unicode="Q" glyph-name="Q" horiz-adv-x="1645" d="M1577 317Q1577 121 1377 47Q1412 28 1431 17T1455 3Q1505 -32 1505 -64Q1505 -108 1467 -135Q1432 -159 1387 -159Q1356 -159 1324 -142L1075 -5H648Q69 -5 69 317V891Q69 1099 271 1169Q400 1210 647
1210H1003Q1257 1210 1379 1172Q1577 1104 1577 892V317ZM1354 311V894Q1354 1029 995 1029H648Q491 1029 433 1017Q291 989 291 894V313Q291 220 424 192Q472 179 629 179H1013Q1354 179 1354 311Z" />
<glyph unicode="R" glyph-name="R" horiz-adv-x="1632" d="M1568 755Q1568 590 1394 514Q1256 458 1076 458H710L1452 143Q1511 117 1511 66Q1511 -9 1380 -9Q1328 -9 1298 -1L285 432V71Q285 -8 207 -8Q124 -8 111 -1Q63 14 63 71V1132Q63 1210 141 1210H1035Q1243
1210 1377 1156Q1568 1079 1568 902V755ZM1346 753V907Q1346 1029 1034 1029H285V639H1074Q1346 639 1346 753Z" />
<glyph unicode="S" glyph-name="S" horiz-adv-x="1462" d="M1422 294Q1422 196 1391 141Q1308 -8 889 -8H120Q43 -8 43 71Q43 125 55 146Q72 175 120 175H889Q1200 175 1200 290V395Q1200 507 899 517L530 529Q504 530 457 532T340 540Q220 554 134 619Q40 691
40 808V900Q40 1113 276 1181Q389 1210 690 1210Q768 1210 768 1108Q768 1049 721 1034Q714 1030 626 1030Q262 1030 262 902V817Q262 738 398 714Q424 709 473 707T595 704H892Q1105 704 1228 649Q1422 569 1422 403V294Z" />
<glyph unicode="T" glyph-name="T" horiz-adv-x="1390" d="M1375 1108Q1375 1029 1297 1029H804V71Q804 -8 727 -8Q649 -8 630 -2Q583 12 583 71V1029H94Q15 1029 15 1108Q15 1162 27 1182Q43 1210 94 1210H1297Q1375 1210 1375 1108Z" />
<glyph unicode="U" glyph-name="U" horiz-adv-x="1663" d="M1583 335Q1583 -12 918 -12Q898 -12 868 -12T797 -10Q757 -9 727 -9T677 -8Q209 -8 114 168Q81 229 81 335V1132Q81 1210 159 1210Q234 1210 255 1204Q304 1189 304 1132V350Q304 234 445 195Q487 185
544 180T680 175H986Q1161 175 1221 194Q1362 231 1362 349V1132Q1362 1190 1409 1204Q1428 1210 1505 1210Q1583 1210 1583 1132V335Z" />
<glyph unicode="V" glyph-name="V" horiz-adv-x="1777" d="M1766 1148Q1766 1123 1743 1088L1023 64Q970 -10 890 -10Q808 -10 757 63L35 1088Q12 1123 12 1148Q12 1213 121 1213Q204 1213 230 1177L890 235L1547 1177Q1572 1213 1656 1213Q1766 1213 1766 1148Z" />
<glyph unicode="W" glyph-name="W" horiz-adv-x="2340" d="M2318 1137Q2318 1118 2309 1099L1828 82Q1784 -8 1690 -8Q1598 -8 1559 76L1175 897L778 74Q742 1 648 1Q547 1 511 79L32 1099Q23 1118 23 1133Q23 1173 64 1196Q99 1216 142 1216Q214 1216 238 1166L648
295L1038 1132Q1080 1222 1172 1222Q1204 1222 1245 1196Q1285 1171 1300 1140L1696 295L2100 1165Q2123 1215 2204 1215Q2245 1215 2278 1197Q2318 1175 2318 1137Z" />
<glyph unicode="X" glyph-name="X" horiz-adv-x="1576" d="M1556 63Q1556 25 1508 4Q1460 -13 1426 -13Q1372 -13 1344 11L790 479L230 11Q204 -9 138 -9Q20 -9 20 61Q20 97 60 131L631 612L79 1073Q40 1106 40 1143Q40 1197 98 1207Q113 1210 197 1210Q227 1210
247 1193L790 740L1328 1192Q1350 1210 1444 1210Q1534 1210 1534 1143Q1534 1106 1495 1073L946 612L1514 131Q1556 95 1556 63Z" />
<glyph unicode="Y" glyph-name="Y" horiz-adv-x="1522" d="M1508 1145Q1508 1110 1472 1076L873 501L871 71Q869 12 824 -1Q811 -8 729 -8Q650 -8 650 70V501L49 1076Q15 1109 15 1144Q15 1210 104 1210Q205 1210 227 1188L760 677L1295 1188Q1317 1210 1418 1210Q1508
1210 1508 1145Z" />
<glyph unicode="Z" glyph-name="Z" horiz-adv-x="1446" d="M1412 84Q1412 -8 1331 -8H218Q146 -8 97 19Q35 52 35 117Q35 159 70 189L1201 1150Q1250 1193 1306 1193Q1327 1193 1345 1187T1378 1168T1401 1140T1410 1103Q1410 1056 1365 1019L367 175H1331Q1412
175 1412 84Z" />
<glyph unicode="[" glyph-name="bracketleft" horiz-adv-x="570" d="M511 1108Q511 1029 433 1029H282V175H428Q507 175 507 96Q507 -8 428 -8H138Q60 -8 60 71V1132Q60 1210 138 1210H433Q511 1210 511 1108Z" />
<glyph unicode="\" glyph-name="backslash" horiz-adv-x="1387" d="M1366 58Q1366 -8 1278 -8Q1179 -8 1153 15L56 1076Q21 1111 21 1145Q21 1210 110 1210Q212 1210 234 1188L1332 127Q1366 94 1366 58Z" />
<glyph unicode="]" glyph-name="bracketright" horiz-adv-x="561" d="M506 71Q506 -8 428 -8H133Q54 -8 54 71Q54 175 133 175H284V1029H138Q59 1029 59 1108Q59 1163 72 1182Q88 1210 138 1210H428Q506 1210 506 1132V71Z" />
<glyph unicode="^" glyph-name="asciicircum" horiz-adv-x="781" d="M739 1133Q739 1075 670 1075Q635 1075 601 1106Q591 1116 577 1129T544 1162Q529 1176 491 1212T390 1306Q320 1234 264 1182T166 1095Q143 1077 115 1077Q42 1077 42 1135Q42 1152 58 1168L324
1435Q353 1464 390 1464Q427 1464 456 1435L723 1168Q739 1152 739 1133Z" />
<glyph unicode="_" glyph-name="underscore" horiz-adv-x="1503" d="M1494 -244Q1494 -322 1416 -322H87Q29 -322 16 -280Q9 -267 9 -190Q9 -111 87 -111H1416Q1472 -111 1487 -154Q1494 -167 1494 -244Z" />
<glyph unicode="`" glyph-name="grave" horiz-adv-x="764" d="M584 1034Q584 978 517 978Q495 978 472 992Q451 1007 324 1134Q261 1197 227 1232T188 1278Q179 1291 179 1302Q179 1327 202 1344T253 1361Q274 1361 287 1348L566 1072Q584 1054 584 1034Z" />
<glyph unicode="a" glyph-name="a" horiz-adv-x="1539" d="M1469 280Q1469 -8 1037 -8H521Q355 -8 234 53Q71 131 71 270V392Q71 542 226 617Q341 675 514 675H1260Q1243 776 974 776Q963 776 948 776T912 774Q911 773 902 773H893H877H852Q774 773 774 872Q774
951 852 951Q1105 951 1239 916Q1469 851 1469 656V280ZM1262 330Q1262 344 1262 365T1260 414Q1259 442 1259 463T1258 498H509Q443 498 373 474Q282 443 282 393V272Q282 219 376 191Q436 169 515 169H1039Q1157 169 1201 192Q1262 223 1262 330Z" />
<glyph unicode="b" glyph-name="b" horiz-adv-x="1455" d="M1397 294Q1397 -8 898 -8H574Q397 -8 249 55Q58 136 58 289V1130Q58 1188 100 1202Q113 1209 191 1209Q269 1209 269 1130V943H898Q1397 943 1397 646V294ZM1187 301V642Q1187 766 902 766H269V290Q269
225 405 192Q454 181 502 175T599 169H900Q969 169 1013 172T1081 180Q1187 205 1187 301Z" />
<glyph unicode="c" glyph-name="c" horiz-adv-x="1450" d="M1412 71Q1412 -8 1314 -8H533Q308 -8 209 35Q39 103 39 282V660Q39 951 489 951H1325Q1407 951 1407 862Q1407 773 1325 773H504Q250 773 250 666V291Q250 169 539 169H1333Q1412 169 1412 71Z" />
<glyph unicode="d" glyph-name="d" horiz-adv-x="1504" d="M1425 287Q1425 133 1234 53Q1099 -8 909 -8H587Q98 -8 82 263Q79 311 79 389Q79 546 85 645Q103 943 584 943H1214V1130Q1214 1209 1292 1209Q1348 1209 1382 1201Q1425 1186 1425 1130V287ZM1214 291V766H579Q296
766 296 641V301Q296 208 403 181Q449 169 584 169H888Q1214 169 1214 291Z" />
<glyph unicode="e" glyph-name="e" horiz-adv-x="1410" d="M1368 455Q1368 368 1309 368H260V361Q260 225 420 186Q455 178 521 174T691 169Q769 169 769 71Q769 -8 691 -8Q585 -8 518 -7T415 -1Q241 17 159 81Q42 172 42 295V648Q42 814 222 894Q345 952 548
952H942Q1108 952 1217 897Q1368 827 1368 686V455ZM1162 551V669Q1162 777 733 777Q480 777 386 759Q253 734 253 661V551H1162Z" />
<glyph unicode="f" glyph-name="f" horiz-adv-x="710" d="M675 865Q675 767 597 767H275V71Q275 -8 197 -8Q119 -8 106 -1Q64 14 64 71V928Q64 1211 537 1211Q618 1211 638 1202Q675 1184 675 1113Q675 1035 597 1035Q455 1035 412 1029Q278 1009 278 943H597Q675
943 675 865Z" />
<glyph unicode="g" glyph-name="g" horiz-adv-x="1463" d="M1394 24Q1394 -141 1188 -218Q1051 -273 841 -273H753Q674 -273 674 -174Q674 -96 753 -96H906Q946 -96 1056 -67Q1170 -34 1177 0H598Q393 0 261 51Q69 124 69 296V652Q69 954 665 954Q681 954 704
954T759 952Q760 951 774 951H789H814H853Q1042 951 1195 895Q1394 817 1394 650V24ZM1181 176V641Q1181 712 1064 748Q969 774 887 774H554Q436 774 385 762Q280 736 280 656V299Q280 176 594 176H1181Z" />
<glyph unicode="h" glyph-name="h" horiz-adv-x="1472" d="M1420 71Q1420 14 1378 -1Q1365 -8 1287 -8Q1209 -8 1209 71V636Q1209 725 1103 753Q1033 767 926 767H306V71Q306 -8 228 -8Q150 -8 137 -1Q95 14 95 71V1132Q95 1190 137 1204Q153 1210 228 1210Q306
1210 306 1132V943H876Q1129 943 1231 903Q1420 835 1420 639V71Z" />
<glyph unicode="i" glyph-name="i" horiz-adv-x="398" d="M336 1082Q336 1030 292 1000Q254 974 199 974Q144 974 106 1000Q62 1030 62 1082Q62 1134 106 1164Q144 1190 199 1190Q254 1190 292 1164Q336 1134 336 1082ZM307 71Q307 -8 228 -8Q151 -8 138 -1Q97
14 97 71V876Q97 954 176 954Q252 954 265 947Q307 932 307 876V71Z" />
<glyph unicode="j" glyph-name="j" horiz-adv-x="692" d="M676 1086Q676 1033 632 1004Q594 978 538 978Q485 978 444 1004Q400 1033 400 1086Q400 1139 444 1168Q485 1194 538 1194Q594 1194 632 1168Q676 1139 676 1086ZM645 82Q645 -120 454 -182Q370 -209
94 -209Q16 -209 16 -110Q16 -31 94 -31Q434 -31 434 65V877Q434 955 513 955Q590 955 603 948Q645 933 645 877V82Z" />
<glyph unicode="k" glyph-name="k" horiz-adv-x="1234" d="M1192 66Q1192 -8 1103 -8Q1019 -8 1001 1L280 362V71Q280 15 238 -1Q225 -8 149 -8Q71 -8 71 71V1132Q71 1210 149 1210Q222 1210 239 1204Q280 1190 280 1132V579H281L992 935Q1019 943 1088 943Q1177
943 1177 870Q1177 822 1123 795L477 473L1138 142Q1192 115 1192 66Z" />
<glyph unicode="l" glyph-name="l" horiz-adv-x="370" d="M291 71Q291 -8 213 -8Q136 -8 123 -1Q80 15 80 71V1132Q80 1210 158 1210Q231 1210 249 1204Q291 1190 291 1132V71Z" />
<glyph unicode="m" glyph-name="m" horiz-adv-x="1956" d="M1885 71Q1885 -8 1807 -8Q1729 -8 1716 -1Q1673 14 1673 71V662Q1673 776 1404 776H1376H1363Q1352 776 1351 775Q1222 770 1180 757Q1086 729 1086 635V71Q1086 14 1043 -1Q1030 -8 952 -8Q873 -8 873
71V637Q873 722 812 752Q770 773 675 773H649H632H623Q615 773 614 774Q594 775 579 775T554 776Q282 776 282 660V71Q282 14 240 -1Q227 -8 149 -8Q71 -8 71 71V638Q71 951 531 951Q622 951 679 950T765 944Q884 929 985 869Q1075 925 1207 942Q1277 951 1442
951Q1885 951 1885 638V71Z" />
<glyph unicode="n" glyph-name="n" horiz-adv-x="1455" d="M1381 71Q1381 -8 1302 -8Q1224 -8 1211 -1Q1168 14 1168 71V681Q1168 746 1060 766Q1041 770 1002 771T902 773H538Q483 773 446 771T386 765Q284 745 284 680V71Q284 -8 206 -8Q128 -8 115 -1Q73 14
73 71V678Q73 951 557 951H902Q1381 951 1381 680V71Z" />
<glyph unicode="o" glyph-name="o" horiz-adv-x="1446" d="M1377 290Q1377 126 1215 50Q1100 -8 909 -8H558Q384 -8 243 51Q69 129 69 290V643Q69 804 242 887Q369 951 557 951H909Q1377 951 1377 645V290ZM1163 290V659Q1163 773 903 773H560Q464 773 388 749Q280
714 280 643V290Q280 222 390 190Q463 169 561 169H904Q987 169 1061 193Q1163 226 1163 290Z" />
<glyph unicode="p" glyph-name="p" horiz-adv-x="1460" d="M1392 297Q1392 0 936 0H278V-195Q278 -251 235 -266Q222 -273 145 -273Q67 -273 67 -195V666Q67 841 233 908Q329 951 549 951H885Q1392 951 1392 669V297ZM1179 294V666Q1179 742 1062 765Q1015 774
887 774H558Q278 774 278 661V176H936Q1179 176 1179 294Z" />
<glyph unicode="q" glyph-name="q" horiz-adv-x="1467" d="M1396 -195Q1396 -251 1352 -266Q1339 -273 1261 -273Q1183 -273 1183 -195V0H528Q71 0 71 297V668Q71 951 577 951H916Q1396 951 1396 667V-195ZM1183 176V662Q1183 774 905 774H576Q282 774 282 666V294Q282
176 524 176H1183Z" />
<glyph unicode="r" glyph-name="r" horiz-adv-x="711" d="M667 851Q667 772 573 772Q560 772 536 773T498 775Q255 775 255 654V71Q255 13 211 -2Q193 -8 119 -8Q44 -8 44 72V654Q44 842 237 909Q355 951 588 951Q667 951 667 851Z" />
<glyph unicode="s" glyph-name="s" horiz-adv-x="1300" d="M1258 266Q1258 -8 840 -8H126Q48 -8 48 71Q48 169 126 169H841Q1039 169 1039 266V302Q1039 389 859 389H516Q43 389 43 653V705Q43 880 281 929Q329 940 421 945T654 951Q733 951 733 851Q733 773 654
773H502Q383 773 359 770Q254 756 254 705V655Q254 569 517 569H867Q1258 569 1258 310V266Z" />
<glyph unicode="t" glyph-name="t" horiz-adv-x="825" d="M803 845Q803 767 724 767H390V71Q390 -8 312 -8Q235 -8 222 -1Q179 15 179 71V767Q137 767 111 768T73 772Q23 789 23 855Q23 921 73 938Q84 940 110 941T179 943V1132Q179 1210 257 1210Q334 1210 347
1203Q390 1188 390 1132V943H724Q803 943 803 845Z" />
<glyph unicode="u" glyph-name="u" horiz-adv-x="1494" d="M1417 278Q1417 -11 805 -11Q788 -11 761 -11T698 -9Q697 -8 690 -8H681H665H636H591Q77 -8 77 278V872Q77 951 155 951Q233 951 246 944Q288 929 288 872V278Q288 169 591 169H906Q1203 169 1203 275V872Q1203
929 1246 944Q1259 951 1338 951Q1417 951 1417 872V278Z" />
<glyph unicode="v" glyph-name="v" horiz-adv-x="1615" d="M1589 886Q1589 858 1560 823L888 11Q853 -30 808 -30Q763 -30 730 9L54 823Q25 858 25 886Q25 955 140 955Q209 955 236 922L809 224L1379 922Q1406 955 1475 955Q1589 955 1589 886Z" />
<glyph unicode="w" glyph-name="w" horiz-adv-x="2014" d="M1979 887Q1979 865 1964 837L1573 78Q1539 11 1445 11Q1355 11 1320 76L1009 659L693 74Q657 8 564 8Q467 8 433 77L50 837Q36 876 36 887Q36 955 135 955Q221 955 247 908L571 282L887 865Q924 935
1009 935Q1091 935 1129 866L1445 282L1768 908Q1792 955 1879 955Q1979 955 1979 887Z" />
<glyph unicode="x" glyph-name="x" horiz-adv-x="1406" d="M1378 62Q1378 8 1323 -4Q1315 -8 1225 -8Q1201 -8 1179 8L707 352L231 8Q209 -8 119 -8Q29 -8 29 62Q29 103 74 135L544 471L79 808Q36 839 36 881Q36 936 93 948Q106 951 193 951Q218 951 239 936L708
592L1167 935Q1186 951 1277 951Q1367 951 1367 882Q1367 840 1324 809L870 474L1334 135Q1378 103 1378 62Z" />
<glyph unicode="y" glyph-name="y" horiz-adv-x="1478" d="M1398 7Q1398 -188 1162 -248Q1075 -273 775 -273Q726 -273 709 -244Q696 -225 696 -170Q696 -91 775 -91H802H819H829Q839 -91 840 -92Q862 -93 877 -93T904 -94Q1186 -94 1186 0H556Q80 0 80 286V872Q80
929 122 944Q135 951 213 951Q291 951 291 872V286Q291 176 556 176H1186V872Q1186 951 1265 951Q1343 951 1356 944Q1398 929 1398 872V7Z" />
<glyph unicode="z" glyph-name="z" horiz-adv-x="1415" d="M1376 81Q1376 -8 1294 -8H185Q132 -8 88 21Q40 55 40 106Q40 157 96 193L1179 893Q1220 919 1257 919Q1299 919 1325 892T1352 822Q1352 784 1324 766L413 172L1294 169Q1376 169 1376 81Z" />
<glyph unicode="{" glyph-name="braceleft" horiz-adv-x="630" d="M584 1287Q584 1205 495 1205H389L387 711Q387 647 338 602Q387 559 387 493L389 -8H495Q567 -8 567 -89Q567 -166 495 -166Q343 -166 288 -150Q157 -118 157 -22V495Q157 502 101 531Q46 561
46 599Q46 636 101 670Q157 705 157 710V1224Q157 1323 287 1354Q341 1370 495 1370Q584 1370 584 1287Z" />
<glyph unicode="|" glyph-name="bar" horiz-adv-x="381" d="M302 -195Q302 -274 224 -274Q190 -274 166 -273T128 -269Q80 -254 80 -195V1237Q80 1295 128 1309Q147 1315 224 1315Q302 1315 302 1237V-195Z" />
<glyph unicode="}" glyph-name="braceright" horiz-adv-x="643" d="M590 600Q590 563 534 531Q479 501 479 495V-22Q479 -120 349 -151Q286 -166 141 -166Q68 -166 68 -89Q68 -8 141 -8H247L248 493Q248 558 298 602Q248 647 248 711L247 1205H141Q52 1205 52
1287Q52 1370 141 1370Q295 1370 349 1354Q479 1323 479 1224V710Q479 705 534 671Q590 636 590 600Z" />
<glyph unicode="~" glyph-name="asciitilde" horiz-adv-x="1595" d="M1519 785Q1519 607 1381 549Q1306 512 1090 512Q910 512 819 558Q691 623 691 783Q691 868 632 888Q614 894 441 894Q373 894 339 886Q285 866 285 780Q285 773 285 762T286 739T287 716T288
698Q288 603 209 603Q131 603 118 610Q76 625 76 682V799Q76 976 214 1035Q289 1072 505 1072Q829 1072 885 908Q889 904 907 778Q917 713 964 696Q982 690 1154 690Q1225 690 1257 698Q1310 718 1310 803Q1310 810 1310 821T1309 844T1308 867T1307 885Q1307 981
1386 981Q1464 981 1477 974Q1519 959 1519 902V785Z" />
</font>
</defs>
</svg>
