<?xml version="1.0" standalone="no"?> <!DOCTYPE svg PUBLIC "-//W3C//DTD SVG 1.0//EN" "http://www.w3.org/TR/2001/REC-SVG-20010904/DTD/svg10.dtd" > <svg xmlns="http://www.w3.org/2000/svg" width="100%" height="100%">
<defs >
<font id="ostrichregular" horiz-adv-x="320" ><font-face
    font-family="Ostrich Sans"
    units-per-em="1000"
    panose-1="2 0 5 8 0 0 0 2 0 4"
    ascent="750"
    descent="-250"
    alphabetic="0" />
<missing-glyph horiz-adv-x="210" />
<glyph unicode=" " glyph-name="space" horiz-adv-x="210" />
<glyph unicode="!" glyph-name="exclam" horiz-adv-x="93" d="M9 675H40V99H9V675ZM9 1V44H40V1H9Z" />
<glyph unicode="&quot;" glyph-name="quotedbl" horiz-adv-x="162" d="M10 586V674H41V586H10ZM69 674H101V586H69V674Z" />
<glyph unicode="#" glyph-name="numbersign" horiz-adv-x="542" d="M76 0L120 226H-20V258H126L157 415H11V447H163L207 674H240L195 447H337L380 674H412L369 447H489V415H362L332 258H458V226H325L282 0H250L293 226H152L108 0H76ZM189 415L158 258H299L330 415H189Z" />
<glyph unicode="$" glyph-name="dollar" d="M166 339Q179 333 197 323T230 297T257 257T268 198Q268 166 261 140T238 93Q209 55 159 49V0H128V49Q108 51 89 59T54 84T29 129T19 202V218H50V202Q50 166 57 143T75 107T100 87T128 80V323Q126 324 124 325T120 327Q107
334 90 344T57 370T30 411T19 471Q19 537 49 578Q77 618 128 624V674H159V624Q179 622 198 615T233 590T258 543T268 471V455H237V471Q237 507 230 530T212 566T187 585T159 593V342Q161 341 162 341T166 339ZM50 471Q50 445 57 427T76 396T101 374T128 359V592Q107
589 92 578T68 549T54 512T50 471ZM159 81Q196 86 216 116T237 198Q237 224 230 242T211 272T185 293T159 307V81Z" />
<glyph unicode="%" glyph-name="percent" horiz-adv-x="449" d="M164 450Q164 409 141 384T82 358Q46 358 23 383T0 450V536Q0 577 23 602T82 628Q118 628 141 603T164 536V450ZM31 450Q31 429 42 410T82 390Q110 390 121 409T132 450V536Q132 557 121 576T82
596Q54 596 43 577T31 536V450ZM327 314Q363 314 385 289T408 223V137Q408 96 386 71T327 45Q290 45 268 70T245 137V223Q245 264 267 289T327 314ZM377 223Q377 233 375 243T366 263T351 277T327 283Q313 283 303 278T287 263T279 244T276 223V137Q276 116 287
96T327 76Q355 76 366 96T377 137V223ZM357 674L87 0H53L323 674H357Z" />
<glyph unicode="&amp;" glyph-name="ampersand" horiz-adv-x="429" d="M151 0Q81 0 40 49Q0 95 0 166Q0 199 8 224T29 268T60 304T96 336Q104 344 113 351T131 367Q124 377 113 396T92 438T74 486T66 537Q66 571 70 594T83 635Q104 674 151 674Q202 674 222 628Q231
608 233 583T236 537Q236 501 229 472T211 421T190 385T171 362L302 137Q316 175 319 215T322 288V298H354V288Q354 250 349 200T323 105Q323 104 323 104T322 103L382 0H346L304 72Q253 0 151 0ZM98 537Q98 517 104 496T118 454T136 417T153 389Q158 394 163 401T173
416Q204 468 204 537Q204 570 200 590T190 623T173 639T151 643Q140 643 131 640T114 625T103 593T98 537ZM116 312Q98 297 83 283T56 252T38 215T31 166Q31 141 38 117T60 73T97 43T151 31Q244 31 286 102L147 339Q139 332 132 326T116 312Z" />
<glyph unicode="&apos;" glyph-name="quotesingle" horiz-adv-x="81" d="M10 586V674H41V586H10V586Z" />
<glyph unicode="(" glyph-name="parenleft" horiz-adv-x="166" d="M103 2Q101 4 86 18T53 69Q30 117 19 183T7 335Q7 437 21 502T53 604T85 656T102 672L120 645Q114 640 107 632Q101 625 94 614T79 586Q65 554 52 494T38 335Q38 237 51 177T79 86Q87 69 93 59T106
41Q112 33 119 29L103 2Z" />
<glyph unicode=")" glyph-name="parenright" horiz-adv-x="158" d="M30 2L13 29Q18 34 25 42Q30 49 37 60T53 88Q67 119 80 179T94 339Q94 388 91 427T81 497T68 550T54 588Q39 621 27 633T13 645H14L30 672Q32 670 47 657T80 605Q126 510 126 339Q126 237 112
172T80 70T47 18T30 2Z" />
<glyph unicode="*" glyph-name="asterisk" horiz-adv-x="295" d="M257 573L160 537L233 455L209 434L133 520L58 434L34 455L106 537L10 573L21 603L118 567V670H149V567L246 603L257 573V573Z" />
<glyph unicode="+" glyph-name="plus" horiz-adv-x="384" d="M336 350V318H190V172H158V318H12V350H158V496H190V350H336V350Z" />
<glyph unicode="," glyph-name="comma" horiz-adv-x="85" d="M44 -40H13V43H44V-40V-40V-40Z" />
<glyph unicode="-" glyph-name="hyphen" horiz-adv-x="299" d="M257 321H13V352H257V321V321V321Z" />
<glyph unicode="." glyph-name="period" horiz-adv-x="81" d="M44 0H12V43H44V0V0V0Z" />
<glyph unicode="/" glyph-name="slash" horiz-adv-x="384" d="M291 674H325L55 0H21L291 674V674Z" />
<glyph unicode="0" glyph-name="zero" d="M134 0Q71 0 39 50Q9 95 9 181V494Q9 580 39 625Q70 674 134 674Q197 674 228 625Q259 578 259 494V181Q259 97 229 50Q196 0 134 0ZM134 643Q40 643 40 494V181Q40 31 134 31Q227 31 227 181V494Q227 643 134 643Z" />
<glyph unicode="1" glyph-name="one" horiz-adv-x="194" d="M110 674H141V0H109V620L32 521L8 541L110 674V674Z" />
<glyph unicode="2" glyph-name="two" d="M262 0H246H137H12V16Q12 61 18 98T36 167Q62 240 127 299Q230 393 230 513Q230 573 206 608Q182 643 137 643Q90 643 68 612Q44 579 44 509V493H12V509Q12 588 43 631Q74 674 137 674Q197 674 232 626Q262 582 262 513Q262
377 148 275Q95 228 71 170T44 31H137H246H262V0Z" />
<glyph unicode="3" glyph-name="three" horiz-adv-x="303" d="M207 309Q225 292 242 260T260 174Q260 94 226 47T135 0Q73 0 40 48Q10 93 10 178V194H42V178Q42 101 67 66Q90 31 135 31Q178 31 203 70Q216 89 222 115T228 174Q228 219 214 246T185 287Q165 306
145 313T109 321H80V352H109Q127 352 148 361T186 388T216 433T228 499Q228 531 222 557T203 604Q179 643 135 643Q42 643 42 495V479H10V495Q10 580 40 625Q73 674 135 674Q197 674 230 620Q260 575 260 499Q260 447 243 414T207 364Q189 346 169 336Q191 325
207 309Z" />
<glyph unicode="4" glyph-name="four" horiz-adv-x="324" d="M247 674H277V0H245V206H10V236L247 674ZM245 237V603L47 237H245Z" />
<glyph unicode="5" glyph-name="five" horiz-adv-x="310" d="M259 643H41V369Q75 420 134 420Q195 420 229 374Q259 330 259 247V176Q259 141 251 110T229 55Q195 0 134 0Q72 0 40 47Q9 93 9 176V187H41V176Q41 100 66 65Q88 31 134 31Q178 31 202 72Q215 92 221
118T227 176V247Q227 321 203 356Q181 388 134 388Q90 388 66 350Q41 311 41 247V243V241H9V243V247V674H41H259V643Z" />
<glyph unicode="6" glyph-name="six" horiz-adv-x="312" d="M134 0Q75 0 42 41T9 158V253V254V453Q9 525 22 569T54 636T95 666T134 674Q196 674 228 630Q259 590 259 520V505H227V520Q227 579 203 611Q179 643 134 643Q104 643 86 624T57 575T44 513T41 453V378Q75
429 134 429Q198 429 229 383Q259 338 259 253V180Q259 144 251 112T229 56Q196 0 134 0ZM41 254V158Q41 140 44 118T57 77T85 44T134 31Q178 31 202 73Q215 93 221 120T227 180V253Q227 329 203 365Q180 398 134 398Q90 398 66 358Q41 319 41 254Z" />
<glyph unicode="7" glyph-name="seven" horiz-adv-x="376" d="M36 0L305 643H6V674H339V644L70 0H36V0Z" />
<glyph unicode="8" glyph-name="eight" horiz-adv-x="332" d="M212 337Q232 327 246 307Q278 265 278 176Q278 87 246 45Q213 0 143 0Q72 0 39 45Q7 89 7 176Q7 263 39 307Q53 327 73 337Q53 348 39 367Q7 411 7 498Q7 585 39 629Q72 674 143 674Q213 674 246
629Q278 587 278 498Q278 409 246 367Q232 348 212 337ZM64 386Q89 353 143 353Q197 353 221 386Q246 420 246 498Q246 576 221 610Q197 643 143 643Q89 643 64 610Q39 576 39 498Q39 420 64 386ZM221 64Q246 98 246 176Q246 254 221 289Q197 322 143 322Q89 322
64 289Q39 254 39 176Q39 98 64 64Q89 31 143 31Q197 31 221 64Z" />
<glyph unicode="9" glyph-name="nine" horiz-adv-x="308" d="M133 0Q71 0 39 46Q8 89 8 163V179H40V163Q40 98 64 64Q88 31 133 31Q162 31 180 48T208 93T222 154T226 220V296Q210 271 187 258T133 244Q71 244 39 291Q8 335 8 422V496Q8 577 42 625T133 674Q195
674 227 631Q258 591 258 518V422V421V220Q258 117 229 61Q197 0 133 0ZM133 643Q90 643 65 603Q40 562 40 496V422Q40 344 65 309Q87 276 133 276Q177 276 201 316Q213 335 219 362T226 421V518Q226 580 202 612Q179 643 133 643Z" />
<glyph unicode=":" glyph-name="colon" horiz-adv-x="113" d="M14 514H45V438H14V514ZM14 163V239H45V163H14Z" />
<glyph unicode=";" glyph-name="semicolon" horiz-adv-x="97" d="M13 514H45V438H13V514ZM13 127V239H45V127H13Z" />
<glyph unicode="&lt;" glyph-name="less" horiz-adv-x="833" />
<glyph unicode="=" glyph-name="equal" horiz-adv-x="312" d="M257 411H13V442H257V411ZM257 201H13V232H257V201Z" />
<glyph unicode="&gt;" glyph-name="greater" horiz-adv-x="833" />
<glyph unicode="?" glyph-name="question" horiz-adv-x="303" d="M234 624Q249 601 256 572T264 507Q264 471 256 445T235 399T210 366T185 344Q180 340 176 337T170 331Q150 308 139 253T128 119V116V100H97V116V119Q97 149 98 183T105 248T121 307T147 352Q153
360 165 368Q175 377 187 388T209 415T225 454T232 507Q232 537 226 562T208 606Q182 644 139 644Q93 644 71 610Q46 576 46 502V487H14V502Q14 583 45 628Q77 675 139 675Q198 675 234 624ZM96 44H128V1H96V44Z" />
<glyph unicode="@" glyph-name="at" horiz-adv-x="647" d="M555 111L574 86L561 76Q518 45 464 27T350 5H328Q274 5 225 17T134 55Q59 102 27 178T12 355Q21 412 44 459T104 545Q137 579 178 601T266 633Q310 642 352 639T432 622T501 584T554 525Q570 500 579
469T590 404T589 336T573 272Q562 245 540 224T490 188T434 168T383 169Q362 174 352 190T343 229Q328 218 309 216T267 213Q212 213 188 241Q160 272 169 336Q176 397 205 429Q237 463 292 463Q306 463 329 460T369 445Q375 441 377 438Q379 446 379 446L381 461L412
456L410 440Q410 440 408 426T402 391T394 345T386 296T379 254T375 227Q371 205 392 199Q400 197 408 197Q424 197 444 203T484 220T520 248T544 284Q554 310 558 340T560 400T549 459T528 508Q509 538 481 559T420 593T350 607T273 602Q237 594 201 576T132 527T76
452T43 350Q29 261 56 192T151 82Q193 56 244 45T348 37T451 56T543 102L555 111ZM267 245Q292 245 306 247T330 259Q341 270 349 295T365 363Q370 391 365 402T351 419Q343 425 328 428T292 431Q250 431 228 408Q217 395 210 377T200 332Q194 280 211 262Q227
245 267 245Z" />
<glyph unicode="A" glyph-name="A" horiz-adv-x="392" d="M42 0H10L63 234V237V237L165 674H190L344 0H312L266 206H88L42 0ZM177 589L96 237H259L177 589Z" />
<glyph unicode="B" glyph-name="B" horiz-adv-x="336" d="M205 337Q226 327 242 308Q277 264 277 176Q277 88 242 44Q205 0 128 0H49H17V31V674H128Q205 674 242 630Q277 586 277 498Q277 411 242 367Q234 357 225 350T205 337ZM49 353H128Q190 353 217 387Q245
421 245 498Q245 576 218 609T128 643H49V353ZM128 31Q191 31 218 64T245 176Q245 254 217 288Q190 322 128 322H49V31H128Z" />
<glyph unicode="C" glyph-name="C" horiz-adv-x="344" d="M152 0Q127 0 102 7T55 34T21 88T8 179V496Q8 551 21 586T55 640T101 667T152 674Q176 674 201 667T248 641T282 586T295 496V480H263V496Q263 573 235 608Q206 643 152 643Q97 643 68 608Q40 573 40 496V179Q40
102 69 66Q96 31 152 31Q206 31 235 66Q263 103 263 179V195H295V179Q295 123 282 89T248 34T202 7T152 0Z" />
<glyph unicode="D" glyph-name="D" horiz-adv-x="348" d="M127 0H12V674H127Q207 674 246 626Q283 582 283 492V182Q283 92 246 48Q207 0 127 0ZM43 31H127Q192 31 221 67T251 182V492Q251 570 222 606T127 643H43V31Z" />
<glyph unicode="E" glyph-name="E" horiz-adv-x="303" d="M41 643V353H252V322H41V31H252V0H10V674H252V643H41Z" />
<glyph unicode="F" glyph-name="F" horiz-adv-x="308" d="M249 643H38V353H249V322H38V0H7V674H249V643V643Z" />
<glyph unicode="G" glyph-name="G" horiz-adv-x="352" d="M154 0Q82 0 45 46Q10 92 10 178V497Q10 584 45 628Q82 674 154 674Q226 674 262 628Q298 584 298 497V481H266V497Q266 546 255 575T228 619T192 638T154 643Q136 643 116 639T80 619T52 575T41 497V178Q41
103 70 66Q97 31 154 31Q210 31 237 66Q266 103 266 178V266H120V298H298V178Q298 91 262 46Q226 0 154 0Z" />
<glyph unicode="H" glyph-name="H" horiz-adv-x="344" d="M246 674H278V0H246V321H42V0H10V674H42V352H246V674V674Z" />
<glyph unicode="I" glyph-name="I" horiz-adv-x="109" d="M54 0H23V674H54V0V0V0Z" />
<glyph unicode="J" glyph-name="J" horiz-adv-x="324" d="M134 0Q67 0 33 43Q0 83 0 165V180H31V165Q31 120 41 94T66 53T99 35T134 31Q184 31 210 62Q236 96 236 165V674H267V165Q267 83 234 43Q201 0 134 0Z" />
<glyph unicode="K" glyph-name="K" horiz-adv-x="360" d="M334 674L127 365L334 0H298L108 335L40 234V0H8V674H40V291L296 674H334V674Z" />
<glyph unicode="L" glyph-name="L" horiz-adv-x="295" d="M262 0H4V674H36V31H262V0V0V0Z" />
<glyph unicode="M" glyph-name="M" horiz-adv-x="473" d="M38 546V0H7V674H34L207 73L379 674H407V0H375V546L219 0H195L38 546V546Z" />
<glyph unicode="N" glyph-name="N" horiz-adv-x="360" d="M41 577V0H9V674H36L268 97V674H300V0H274L41 577V577Z" />
<glyph unicode="O" glyph-name="O" horiz-adv-x="356" d="M153 0Q129 0 104 7T57 34T23 88T10 179V496Q10 582 45 628Q82 674 153 674Q225 674 261 628Q297 583 297 496V179Q297 123 284 89T250 34T204 7T153 0ZM153 643Q96 643 70 608Q41 571 41 496V179Q41 103
70 66Q97 31 153 31Q208 31 237 66Q265 101 265 179V496Q265 573 237 608Q209 643 153 643Z" />
<glyph unicode="P" glyph-name="P" horiz-adv-x="340" d="M42 0H11V674H132Q213 674 251 630Q289 586 289 498Q289 410 251 366Q213 322 132 322H42V0ZM42 353H132Q198 353 228 387Q257 422 257 498Q257 576 228 609T132 643H42V353Z" />
<glyph unicode="Q" glyph-name="Q" horiz-adv-x="348" d="M280 -31L234 25Q200 0 150 0Q78 0 42 49Q6 95 6 182V499Q6 585 42 629Q78 674 150 674Q221 674 257 629Q293 585 293 499V182Q293 96 258 49L256 47L321 -31H280ZM150 31Q188 31 214 49L169 104H209L236
72Q261 109 261 182V499Q261 575 233 610Q206 643 150 643Q94 643 67 610Q38 573 38 499V182Q38 106 67 68Q94 31 150 31Z" />
<glyph unicode="R" glyph-name="R" horiz-adv-x="348" d="M245 307Q290 264 290 188V1H258V188Q258 249 225 282T132 316H117H42V1H11V675H132Q213 675 250 632T288 496Q288 406 251 362Q235 343 211 331Q230 322 245 307ZM132 348Q199 348 227 382Q257 418 257
496Q257 575 228 609T132 643H42V348H117H132Z" />
<glyph unicode="S" glyph-name="S" horiz-adv-x="348" d="M154 1Q82 1 46 47Q10 90 10 179V194H41V179Q41 129 52 100T79 56T116 37T154 32Q208 32 237 69T267 174Q267 210 255 234T225 275T188 300T157 314L140 321Q125 327 103 338T61 370T25 421T10 496Q10
572 45 621Q85 675 154 675Q225 675 263 628Q299 583 299 496V480H267V496Q267 572 238 609Q211 643 154 643Q100 643 71 602Q41 561 41 496Q41 460 53 435T82 393T119 366T153 350L169 343Q182 338 204 328T247 298T283 248T299 174Q299 99 263 52Q224 1 154 1Z"
/>
<glyph unicode="T" glyph-name="T" horiz-adv-x="401" d="M359 675V643H197V1H166V643H5V675H359V675Z" />
<glyph unicode="U" glyph-name="U" horiz-adv-x="348" d="M141 1Q118 1 95 7T52 32T20 82T7 166V675H38V166Q38 121 48 95T73 54T106 36T141 32Q157 32 175 36T208 54T233 94T243 166V675H274V166Q274 115 262 83T230 32T187 8T141 1Z" />
<glyph unicode="V" glyph-name="V" horiz-adv-x="401" d="M329 675H362L193 1H169L0 675H32L181 81L329 675V675Z" />
<glyph unicode="W" glyph-name="W" horiz-adv-x="651" d="M572 674H605L458 0H432L303 585L174 0H149L0 674H32L162 89L291 674H316L445 89L572 674V674Z" />
<glyph unicode="X" glyph-name="X" horiz-adv-x="392" d="M-4 0L156 337L-4 674H31L174 374L314 674H349L191 337L351 0H316L174 300L31 0H-4V0Z" />
<glyph unicode="Y" glyph-name="Y" horiz-adv-x="417" d="M360 674H396L209 333V0H178V333L-10 674H26L193 370L360 674V674Z" />
<glyph unicode="Z" glyph-name="Z" horiz-adv-x="409" d="M40 31H333V0H5V31L292 643H0V674H328V645L40 31V31Z" />
<glyph unicode="[" glyph-name="bracketleft" horiz-adv-x="833" />
<glyph unicode="\" glyph-name="backslash" horiz-adv-x="380" d="M56 674L326 0H292L22 674H56V674Z" />
<glyph unicode="]" glyph-name="bracketright" horiz-adv-x="833" />
<glyph unicode="^" glyph-name="asciicircum" horiz-adv-x="833" />
<glyph unicode="_" glyph-name="underscore" horiz-adv-x="461" d="M424 -31H20V0H424V-31V-31V-31Z" />
<glyph unicode="`" glyph-name="grave" horiz-adv-x="81" d="M10 586V674H41V586H10V586Z" />
<glyph unicode="a" glyph-name="a" horiz-adv-x="392" d="M42 0H10L63 234V237V237L165 674H190L344 0H312L266 206H88L42 0ZM177 589L96 237H259L177 589Z" />
<glyph unicode="b" glyph-name="b" horiz-adv-x="336" d="M205 337Q226 327 242 308Q277 264 277 176Q277 88 242 44Q205 0 128 0H49H17V31V674H128Q205 674 242 630Q277 586 277 498Q277 411 242 367Q234 357 225 350T205 337ZM49 353H128Q190 353 217 387Q245
421 245 498Q245 576 218 609T128 643H49V353ZM128 31Q191 31 218 64T245 176Q245 254 217 288Q190 322 128 322H49V31H128Z" />
<glyph unicode="c" glyph-name="c" horiz-adv-x="344" d="M152 0Q127 0 102 7T55 34T21 88T8 179V496Q8 551 21 586T55 640T101 667T152 674Q176 674 201 667T248 641T282 586T295 496V480H263V496Q263 573 235 608Q206 643 152 643Q97 643 68 608Q40 573 40 496V179Q40
102 69 66Q96 31 152 31Q206 31 235 66Q263 103 263 179V195H295V179Q295 123 282 89T248 34T202 7T152 0Z" />
<glyph unicode="d" glyph-name="d" horiz-adv-x="348" d="M127 0H12V674H127Q207 674 246 626Q283 582 283 492V182Q283 92 246 48Q207 0 127 0ZM43 31H127Q192 31 221 67T251 182V492Q251 570 222 606T127 643H43V31Z" />
<glyph unicode="e" glyph-name="e" horiz-adv-x="303" d="M41 643V353H252V322H41V31H252V0H10V674H252V643H41Z" />
<glyph unicode="f" glyph-name="f" horiz-adv-x="308" d="M249 643H38V353H249V322H38V0H7V674H249V643V643Z" />
<glyph unicode="g" glyph-name="g" horiz-adv-x="352" d="M154 0Q82 0 45 46Q10 92 10 178V497Q10 584 45 628Q82 674 154 674Q226 674 262 628Q298 584 298 497V481H266V497Q266 546 255 575T228 619T192 638T154 643Q136 643 116 639T80 619T52 575T41 497V178Q41
103 70 66Q97 31 154 31Q210 31 237 66Q266 103 266 178V266H120V298H298V178Q298 91 262 46Q226 0 154 0Z" />
<glyph unicode="h" glyph-name="h" horiz-adv-x="344" d="M246 674H278V0H246V321H42V0H10V674H42V352H246V674V674Z" />
<glyph unicode="i" glyph-name="i" horiz-adv-x="109" d="M54 0H23V674H54V0V0V0Z" />
<glyph unicode="j" glyph-name="j" horiz-adv-x="324" d="M134 0Q67 0 33 43Q0 83 0 165V180H31V165Q31 120 41 94T66 53T99 35T134 31Q184 31 210 62Q236 96 236 165V674H267V165Q267 83 234 43Q201 0 134 0Z" />
<glyph unicode="k" glyph-name="k" horiz-adv-x="360" d="M334 674L127 365L334 0H298L108 335L40 234V0H8V674H40V291L296 674H334V674Z" />
<glyph unicode="l" glyph-name="l" horiz-adv-x="295" d="M262 0H4V674H36V31H262V0V0V0Z" />
<glyph unicode="m" glyph-name="m" horiz-adv-x="473" d="M38 546V0H7V674H34L207 73L379 674H407V0H375V546L219 0H195L38 546V546Z" />
<glyph unicode="n" glyph-name="n" horiz-adv-x="360" d="M41 577V0H9V674H36L268 97V674H300V0H274L41 577V577Z" />
<glyph unicode="o" glyph-name="o" horiz-adv-x="356" d="M153 0Q129 0 104 7T57 34T23 88T10 179V496Q10 582 45 628Q82 674 153 674Q225 674 261 628Q297 583 297 496V179Q297 123 284 89T250 34T204 7T153 0ZM153 643Q96 643 70 608Q41 571 41 496V179Q41 103
70 66Q97 31 153 31Q208 31 237 66Q265 101 265 179V496Q265 573 237 608Q209 643 153 643Z" />
<glyph unicode="p" glyph-name="p" horiz-adv-x="340" d="M42 0H11V674H132Q213 674 251 630Q289 586 289 498Q289 410 251 366Q213 322 132 322H42V0ZM42 353H132Q198 353 228 387Q257 422 257 498Q257 576 228 609T132 643H42V353Z" />
<glyph unicode="q" glyph-name="q" horiz-adv-x="348" d="M280 -31L234 25Q200 0 150 0Q78 0 42 49Q6 95 6 182V499Q6 585 42 629Q78 674 150 674Q221 674 257 629Q293 585 293 499V182Q293 96 258 49L256 47L321 -31H280ZM150 31Q188 31 214 49L169 104H209L236
72Q261 109 261 182V499Q261 575 233 610Q206 643 150 643Q94 643 67 610Q38 573 38 499V182Q38 106 67 68Q94 31 150 31Z" />
<glyph unicode="r" glyph-name="r" horiz-adv-x="348" d="M245 307Q290 264 290 188V1H258V188Q258 249 225 282T132 316H117H42V1H11V675H132Q213 675 250 632T288 496Q288 406 251 362Q235 343 211 331Q230 322 245 307ZM132 348Q199 348 227 382Q257 418 257
496Q257 575 228 609T132 643H42V348H117H132Z" />
<glyph unicode="s" glyph-name="s" horiz-adv-x="348" d="M154 1Q82 1 46 47Q10 90 10 179V194H41V179Q41 129 52 100T79 56T116 37T154 32Q208 32 237 69T267 174Q267 210 255 234T225 275T188 300T157 314L140 321Q125 327 103 338T61 370T25 421T10 496Q10
572 45 621Q85 675 154 675Q225 675 263 628Q299 583 299 496V480H267V496Q267 572 238 609Q211 643 154 643Q100 643 71 602Q41 561 41 496Q41 460 53 435T82 393T119 366T153 350L169 343Q182 338 204 328T247 298T283 248T299 174Q299 99 263 52Q224 1 154 1Z"
/>
<glyph unicode="t" glyph-name="t" horiz-adv-x="401" d="M359 675V643H197V1H166V643H5V675H359V675Z" />
<glyph unicode="u" glyph-name="u" horiz-adv-x="348" d="M141 1Q118 1 95 7T52 32T20 82T7 166V675H38V166Q38 121 48 95T73 54T106 36T141 32Q157 32 175 36T208 54T233 94T243 166V675H274V166Q274 115 262 83T230 32T187 8T141 1Z" />
<glyph unicode="v" glyph-name="v" horiz-adv-x="401" d="M329 675H362L193 1H169L0 675H32L181 81L329 675V675Z" />
<glyph unicode="w" glyph-name="w" horiz-adv-x="651" d="M572 674H605L458 0H432L303 585L174 0H149L0 674H32L162 89L291 674H316L445 89L572 674V674Z" />
<glyph unicode="x" glyph-name="x" horiz-adv-x="392" d="M-4 0L156 337L-4 674H31L174 374L314 674H349L191 337L351 0H316L174 300L31 0H-4V0Z" />
<glyph unicode="y" glyph-name="y" horiz-adv-x="417" d="M360 674H396L209 333V0H178V333L-10 674H26L193 370L360 674V674Z" />
<glyph unicode="z" glyph-name="z" horiz-adv-x="409" d="M40 31H333V0H5V31L292 643H0V674H328V645L40 31V31Z" />
<glyph unicode="{" glyph-name="braceleft" horiz-adv-x="833" />
<glyph unicode="|" glyph-name="bar" horiz-adv-x="89" d="M44 0H13V674H44V0V0V0Z" />
<glyph unicode="}" glyph-name="braceright" horiz-adv-x="833" />
<glyph unicode="~" glyph-name="asciitilde" horiz-adv-x="833" />
</font>
</defs>
</svg>
