<svg xmlns="http://www.w3.org/2000/svg" viewBox="0 0 512 512"><path d="m0,0h512v512h-512z"/>
<g transform="matrix(18.68858 0 0 18.68858 -2267.49414 -33370.22987)">
<path fill="#fff" d="m141.3361,1800.1257c-.2987-7.8449-5.1772-4.6924-6.0781-13.3716-.9009,8.6792-5.7795,5.5267-6.0781,13.3716-.215,5.6476 4.3647,5.1156 6.0781,11.7002 1.7135-6.5846 6.2931-6.0526 6.0781-11.7002z"/>
</g>
<g fill="#fff" transform="matrix(18.68858 0 0 18.68858 -2259.38339 -33363.72852)">
<path d="m130.2427,1804.3736c-5.5907-4.5912-8.335-10.1902-.7132-14.5444-4.3444,4.2211-2.2392,7.2044 1.5095,9.502"/>
<path d="m139.4052,1804.3736c5.5907-4.5912 8.335-10.1902 .7132-14.5444 4.3444,4.2211 2.2392,7.2044-1.5095,9.502"/>
</g>
<g transform="matrix(18.68858 0 0 18.68858 -2267.49414 -33370.22987)">
<path d="m138.8579,1798.5807c-.1769-4.6463-3.0663-2.7792-3.6-7.9197-.5336,5.1405-3.4231,3.2734-3.5999,7.9197-.1274,3.345 2.5851,3.0299 3.5999,6.9298 1.0149-3.8999 3.7273-3.5848 3.6-6.9298z"/>
<path fill="#fff" stroke="#000" stroke-width=".721" d="m138.8303,1799.498c0,1.4484-1.1741,2.6225-2.6225,2.6225-1.4484,0-2.6225-1.1741-2.6225-2.6225 0-1.4483 1.1741-2.6224 2.6225-2.6224 1.4484,0 2.6225,1.1741 2.6225,2.6224z" transform="matrix(1.38776 0 0 1.38776 -53.77862 -698.72787)"/>
</g>
</svg>