<svg xmlns="http://www.w3.org/2000/svg" viewBox="0 0 512 512"><path d="m0,0h512v512h-512z"/><g transform="matrix(18.68858 0 0 18.68858-2958.95-42868.29)"><path d="m165.79 2320.18h12.852l5.902-8.099-4.217.443 2.615-7.827-5.02 2.255 1.258-7.72-4.264 2.772-2.748-6.943-2.428 7.163-4.065-2.931 1.152 7.49-5.258-2.65 3.184 9.161-4.756-.671z" fill="#fff"/><path d="m166.58 2316.12l3.749-1.996-4.149-4.242 4.02.993-.449-4.535 2.752 4.683 2.431-6.271-.727 6.04 4.416-1.15-3.182 3.082 3.056 2.235-4.144-.691 1.932 4.054-3.585-2.104-2.173 2.695-.198-3.102z"/><g fill="#fff"><path d="m167.94 2306.23l-8.298-10.963 6.395 11.952"/><path d="m179.48 2311.42l5.297-2.661-3.91 4.683"/><path d="m173.42 2302.54l3.136-7.73-.596 8.208"/><path d="m165.77 2320.11l-5.625-4.275 6.85 1.57"/></g><path d="m182.2 2304.34l-6.938 5.305 5.058-7.294"/></g></svg>